<svg xmlns="http://www.w3.org/2000/svg" viewBox="0 0 128 128">
  <path d="m64 4 9 22 16-18 1 25 23-10-10 23 25-1-18 17 22 9-24 8 15 19-24-2 6 24-20-14-4 25-14-20-13 21-5-25-21 13 7-24-25 3 16-20-24-7 22-10L5 45l25 1-11-23 23 10V8l16 18Z" fill="#070A12" stroke="#070A12" stroke-width="7" stroke-linejoin="round"/>
  <path d="m64 12 7 24 16-19-2 25 23-11-12 23 25-3-20 16 23 8-25 5 17 19-25-6 7 25-19-17-6 25-12-22-15 21-3-25-22 13 10-24-25 4 19-18-24-6 24-8L13 49l25 2-12-23 22 12-2-25 17 20Z" fill="#24252B"/>
  <path d="m64 27 12 20 23-6-12 20 22 11-25 3 9 24-21-15-15 21-3-25-25 6 18-18-18-17 25 4Z" fill="#FF8A32"/>
  <path d="m64 44 10 14 17 5-14 11-2 18-13-12-18 5 8-16-10-15 18 3Z" fill="#D9E6F2" stroke="#E4B54A" stroke-width="3"/>
</svg>
