<svg xmlns="http://www.w3.org/2000/svg" viewBox="0 0 128 128">
  <path d="m64 5 8 38 27-27-17 39 41-9-37 22 36 19-41-7 15 39-25-29-10 34-5-36-31 26 21-36-40 3 38-16-33-25 39 12Z" fill="#070A12" stroke="#070A12" stroke-width="5" stroke-linejoin="round"/>
  <path d="m64 15 5 37 23-27-16 35 36-8-34 17 33 14-37-3 14 30-22-25-6 29-5-31-27 22 19-29-33 1 32-12-28-20 34 10Z" fill="#D9E6F2"/>
  <path d="m64 39 8 17 18 8-17 8-9 19-8-18-19-9 19-8Z" fill="#E4B54A" stroke="#24252B" stroke-width="4"/>
</svg>
