<svg xmlns="http://www.w3.org/2000/svg" viewBox="0 0 128 128">
  <path d="m65 5 10 28 21-18-5 30 29-7-22 21 28 10-30 5 18 24-27-12 3 31-19-24-14 28-2-31-26 17 15-27-31 2 26-18L9 49l31-2-8-30 23 21Z" fill="#070A12" stroke="#070A12" stroke-width="6" stroke-linejoin="round"/>
  <path d="m65 13 7 29 21-17-7 27 27-7-22 19 27 7-28 1 17 22-25-10 2 27-17-22-11 25-3-28-23 16 13-24-27 1 23-15-27-12 28-1-8-26 21 18Z" fill="#FF8A32"/>
  <path d="m64 35 12 18 22 9-19 13-5 22-15-17-22 4 10-20-12-18 22 5Z" fill="#D9E6F2" stroke="#E4B54A" stroke-width="4"/>
</svg>
