<svg xmlns="http://www.w3.org/2000/svg" viewBox="0 0 1920 1080">
  <path d="M32 42h420l38 38v166l-28 28H32Zm0 996h500l34-34v-92l-30-30H32ZM1888 42h-420l-38 38v112l28 28h430Zm0 996h-500l-34-34v-138l30-30h504Z" fill="#070A12" fill-opacity=".72" stroke="#3FD9E8" stroke-width="4"/>
  <path d="M58 70h365l30 30v118H58Zm1804 0h-365l-30 30v64h395ZM58 1010h446l24-24v-48H58Zm1804 0h-446l-24-24V892h470Z" fill="none" stroke="#1C2B5E" stroke-width="12"/>
  <path d="M72 286h220M72 310h150M1848 232h-210M1848 256h-130M72 850h240M1848 804h-260" stroke="#E4B54A" stroke-width="5"/>
  <path d="M910 32h100l22 22-22 22H910l-22-22Z" fill="#070A12" stroke="#3FD9E8" stroke-width="4"/>
</svg>
